<svg width="26" height="16" viewBox="0 0 26 16" fill="none" xmlns="http://www.w3.org/2000/svg">
<path d="M10.4061 7.24486C11.7863 6.58514 12.5068 5.58687 12.5068 4.03305C12.5068 0.968818 10.2238 0.22229 7.58927 0.22229H0.33667V15.6042H7.79327C10.5884 15.6042 13.2143 14.2631 13.2143 11.1381C13.2143 9.20666 12.2985 7.77871 10.4061 7.24486ZM3.71775 2.84816H6.89049C8.11011 2.84816 9.2082 3.19104 9.2082 4.60597C9.2082 5.91239 8.35316 6.43757 7.14657 6.43757H3.71775V2.84816ZM7.3332 12.9914H3.71775V8.75528H7.40264C8.89136 8.75528 9.8332 9.37594 9.8332 10.9515C9.8332 12.5053 8.70907 12.9914 7.3332 12.9914ZM22.8931 2.54434H16.6561V1.02958H22.8931V2.54434ZM25.3367 10.1962C25.3367 6.90198 23.4096 4.15458 19.9157 4.15458C16.5216 4.15458 14.2169 6.70666 14.2169 10.0487C14.2169 13.5166 16.4 15.895 19.9157 15.895C22.5763 15.895 24.2993 14.6971 25.1283 12.1494H22.4287C22.1379 13.0999 20.94 13.6034 20.0111 13.6034C18.2186 13.6034 17.2768 12.553 17.2768 10.7692H25.3106C25.3236 10.5869 25.3367 10.3916 25.3367 10.1962ZM17.2811 8.84208C17.3809 7.37941 18.3532 6.46361 19.8202 6.46361C21.3566 6.46361 22.1292 7.36639 22.2594 8.84208H17.2811Z" fill="black"/>
</svg>
